#!OML:ASF E:/inclinewalkrobotboard/Project1/Captureday1/Session1/subject1.ASF
:FULLY-SPECIFIED
:DEGREES
38
root 0 0 0 -0.5039152085739157 -1.9952538633817931 -4.181374738891891
lowerback 14.398919547201249 1.7826836566979565 0.5221723685473757
upperback 0.69491642276163 2.4565067926985282 0.2994122470864219
thorax -7.352522232106812 1.1706503016359546 -0.4214152700052558
lowerneck -8.314351800259772 -3.8218751511746567 -0.0022306024380555067
upperneck 2.7370579914367337 -5.3840363529039195 3.3002906732646293
head 2.3300233702186413 -2.531771275522136 0.7567907489835923
rclavicle -3.692528679487635E-16 -3.0456289109144466E-17
rhumerus 10.492272458789262 -0.38288938388529736 -40.99682786096648
rradius 115.25274036815152
rwrist -29.240754502739513
rhand -11.953993443916756 -34.26221217624428
rfingers 7.125019999999954
rthumb 14.143852743702972 -63.73228286195696
lclavicle -3.6388268376801075E-16 -5.512987826823243E-16
lhumerus -42.60435023669327 -0.31286448719500937 83.00033069044444
lradius 44.032791630846646
lwrist 2.2908778514249932
lhand -16.490600139556737 -9.288551613336983
lfingers 7.125019999999912
lthumb 9.702558790214834 19.650048261140103
rfemur -3.002265313121133 1.117950260301035 6.00516016302142
rtibia 9.00140024517075
rfoot -1.6913186508120344 -1.46852266345636
rtoes 0.8614867731356388
lfemur -6.49314686942895 -3.592068244618865 -12.21632245406424
ltibia 27.342350495362854
lfoot -19.323052330195946 8.016451117374151
ltoes -43.401153249063135
39
root 0 0 0 -0.5010890301008151 -1.9974711579571431 -4.124347843959867
lowerback 14.518443827104125 1.6990425094735415 0.45542560219467293
upperback 0.7346248944172901 2.333952188017886 0.3222259171391021
thorax -7.384999382231109 1.112426188627855 -0.3449195554831318
lowerneck -8.232086336016582 -3.7461574606508767 0.10263952642542884
upperneck 2.3220853499546337 -5.241990267936496 3.1368401925616514
head 2.177146162550243 -2.4827628398697574 0.7041748112481891
rclavicle -3.629324369284001E-16 -2.9037370291668875E-17
rhumerus 10.377363645544179 -0.3264587909057175 -41.07083219903012
rradius 115.18828009110331
rwrist -29.218476345151306
rhand -11.921742771356957 -34.366751918489065
rfingers 7.125019999999954
rthumb 14.174306838732946 -63.8337784420014
lclavicle -3.7119449414831057E-16 -5.482043035228108E-16
lhumerus -42.59595168136072 -0.3183256599989559 83.00366310553329
lradius 44.032928550165266
lwrist 2.2934258964767396
lhand -16.49319040573705 -9.286471868960628
lfingers 7.125019999999912
lthumb 9.70061036983622 19.658795750545508
rfemur -2.9743137387822767 1.1057438257165861 5.943578285564138
rtibia 8.916954037027601
rfoot -1.672020139690635 -1.453544905331174
rtoes 0.852372203387648
lfemur -6.498112080368911 -3.586971654404893 -12.23281235881368
ltibia 27.35600447619282
lfoot -19.294319932797617 7.990953253904362
ltoes -43.31792937290815
40
root 0 0 0 -0.4967782804093901 -2.0006883997447837 -4.050413834563973
lowerback 14.707126884247149 1.5860072635798026 0.36191482027723965
upperback 0.7753538785473472 2.1681415742863623 0.3491251775679991
thorax -7.457581953374962 1.0335250157585947 -0.24497423670370866
lowerneck -8.128207347474753 -3.646326524139768 0.2537080344501246
upperneck 1.6293908722463772 -5.051933618384254 2.9095067795030776
head 1.9279766808030159 -2.4185960658322445 0.6306892196762932
rclavicle -3.5699161392038707E-16 -2.6766098370535325E-17
rhumerus 10.302694735935184 -0.2598961062668961 -41.109197317366856
rradius 115.19334678467379
rwrist -29.22650172115296
rhand -11.88796914186643 -34.501408577910325
rfingers 7.125019999999955
rthumb 14.20623861331707 -63.96488912609222
lclavicle -3.8396686790764937E-16 -5.448028091620479E-16
lhumerus -42.583803441948476 -0.329350888500725 83.0061274354583
lradius 44.03792883460851
lwrist 2.302775280445527
lhand -16.498717163401192 -9.2778243790089
lfingers 7.125019999999912
lthumb 9.69535479036921 19.67659344878023
rfemur -2.955016603440815 1.0967009133507868 5.898926747317008
rtibia 8.857498518959181
rfoot -1.6577195350971343 -1.4428596177197381
rtoes 0.8457581903775697
lfemur -6.507876129181545 -3.577908995826302 -12.259879808039194
ltibia 27.381031631870208
lfoot -19.24584590542639 7.94825747784178
ltoes -43.17962217238876
41
root 0 0 0 -0.4878755721894068 -2.0080524142634233 -3.923577165260098
lowerback 15.087131125072435 1.3803109544907897 0.18761704312903327
upperback 0.8145609780178683 1.8662438227929197 0.3905045041744516
thorax -7.6461279512862586 0.8896948235965081 -0.0708483803281642
lowerneck -7.968401385811259 -3.4680201736191716 0.5459081950964663
upperneck 0.13202179718200568 -4.708939931193864 2.4823710207529537
head 1.4009413448678893 -2.3048686355909496 0.49196369292107744
rclavicle -3.486188503197706E-16 -2.3525801174144616E-17
rhumerus 10.260135708258147 -0.17831636807168216 -41.116992911392686
rradius 115.26428471895836
rwrist -29.2634679381875
rhand -11.850479083148496 -34.674706182199714
rfingers 7.125019999999957
rthumb 14.242020854521872 -64.1339520496842
lclavicle -4.1492252045705574E-16 -5.391342859368259E-16
lhumerus -42.550080843676675 -0.3551978577180315 83.0080402943001
lradius 44.04008403891173
lwrist 2.3313135499330824
lhand -16.52128371526281 -9.225027740097493
lfingers 7.125019999999911
lthumb 9.673289546217154 19.746396132178454
rfemur -2.9416521987535384 1.0893815273012584 5.86429869829494
rtibia 8.8135978189908
rfoot -1.6452356765791554 -1.4345587639396686
rtoes 0.8411495834020704
lfemur -6.535793230753169 -3.5543632431626753 -12.32784851505142
ltibia 27.448137071986864
lfoot -19.121577669646786 7.839504946190047
ltoes -42.82733081229053
42
root 0 0 0 -0.4751508875627093 -2.0148841166559412 -3.849984656184686
lowerback 15.371731251198156 1.2428492954884387 0.06995643114507188
upperback 0.8142683210686538 1.6641443474992828 0.41075275180521
thorax -7.817667341183947 0.7933188065334114 0.036789395377651246
lowerneck -7.8635669078293455 -3.3484236690283753 0.7632570788710743
upperneck -1.0890394728901889 -4.477704646998325 2.1857953962726584
head 0.9749830360601646 -2.2299232459818845 0.3948916855704365
rclavicle -3.4770318089070465E-16 -1.9740067904881468E-17
rhumerus 10.326236891999681 -0.09914961451340965 -41.038332026454654
rradius 115.4766081695391
rwrist -29.35988204818775
rhand -11.820574318255092 -34.86497850289534
rfingers 7.1250199999999575
rthumb 14.270048484063684 -64.32081629231939
lclavicle -4.3484937948116576E-16 -5.351942505121731E-16
lhumerus -42.55032294841846 -0.3761358838782066 83.01066503248148
lradius 44.08147349602549
lwrist 2.34550880479976
lhand -16.511894946936792 -9.266693438851227
lfingers 7.125019999999911
lthumb 9.680920644810755 19.720510138858796
rfemur -2.950912777978135 1.0917120183596905 5.878079540203336
rtibia 8.835762680869133
rfoot -1.6494637101449996 -1.4385791079194095
rtoes 0.8425971436033097
lfemur -6.556101798215391 -3.537576273188856 -12.373488782685078
ltibia 27.49616468863772
lfoot -19.035880742290505 7.764643266456835
ltoes -42.58754996971699
43
root 0 0 0 -0.462774544754037 -2.019638049115884 -3.80756683647987
lowerback 15.63836633437661 1.1522008893117455 -0.014564377665001849
upperback 0.8082409570520911 1.5299431281468663 0.41607261293682707
thorax -7.981365670241396 0.7291264585890841 0.10111856165425814
lowerneck -7.772611182955835 -3.2752812612643716 0.9291835264728158
upperneck -2.18844657081252 -4.327242441648272 1.9788518072128154
head 0.5925242256024719 -2.1853628370402722 0.32660144712992123
rclavicle -3.4806544576335914E-16 -1.5870770077058826E-17
rhumerus 10.504159185112233 -0.024963778477079757 -40.87326809936796
rradius 115.82815402942688
rwrist -29.514578424022176
rhand -11.800822026987657 -35.06415325934044
rfingers 7.1250199999999575
rthumb 14.288785173602687 -64.51630105351659
lclavicle -4.543845450085864E-16 -5.306293541081759E-16
lhumerus -42.566197145784976 -0.39592197849363964 83.01568389331737
lradius 44.14356724065128
lwrist 2.3513412155896165
lhand -16.48493799663257 -9.362257915456485
lfingers 7.125019999999911
lthumb 9.704947882018363 19.6421367246681
rfemur -2.970275116378806 1.099590594196138 5.917690042932204
rtibia 8.88833596471165
rfoot -1.6617677984096728 -1.448310022645682
rtoes 0.8484220806502816
lfemur -6.577369511710332 -3.5210638232166156 -12.415521156893258
ltibia 27.54456180220111
lfoot -18.954807222878323 7.694476973796156
ltoes -42.364498288901245
44
root 0 0 0 -0.4526870052026609 -2.0201584094070846 -3.7977145785661737
lowerback 15.865587524793781 1.1183408291187518 -0.058883907884698106
upperback 0.8112622562352274 1.478112410862163 0.40716350052138495
thorax -8.109160092202572 0.703999319332271 0.11763702424728911
lowerneck -7.688606838349981 -3.2574507433981035 1.0228048822309646
upperneck -3.018356770207884 -4.274529889738883 1.887660327055825
head 0.3016194922933053 -2.1764215078844757 0.29582678471330737
rclavicle -3.514871565924319E-16 -1.1082364860961705E-17
rhumerus 10.77645788926824 0.052639966649396186 -40.6322479133691
rradius 116.30927262841001
rwrist -29.725031680345495
rhand -11.786066945466516 -35.288095811194246
rfingers 7.125019999999958
rthumb 14.302822000286527 -64.73619429414937
lclavicle -4.671449795740785E-16 -5.257158487180069E-16
lhumerus -42.60235584341567 -0.4097096841475182 83.02378190293945
lradius 44.224109070461125
lwrist 2.3426215718634498
lhand -16.436887774960233 -9.520756755865001
lfingers 7.125019999999912
lthumb 9.749299659279462 19.500145620337882
rfemur -2.991925872635412 1.1096601852131636 5.9664436207921785
rtibia 8.949968972818965
rfoot -1.6776209540625904 -1.4598617136751764
rtoes 0.8558842673026372
lfemur -6.596197147107536 -3.5076740412565357 -12.446475898471004
ltibia 27.584991512402272
lfoot -18.892264970929855 7.641066184461818
ltoes -42.196914451055534
45
root 0 0 0 -0.44420189652626885 -2.014943927417129 -3.8153655012980967
lowerback 16.074408584867104 1.1362197930314941 -0.06960591046032627
upperback 0.8304427838015676 1.5007059998494325 0.3848613831138882
thorax -8.205584476876512 0.7142150762769465 0.09177951712347837
lowerneck -7.597786381718416 -3.2916740394670265 1.051825987164567
upperneck -3.626207861575935 -4.312052093053557 1.9030119675728066
head 0.08281555910424387 -2.2010040289385353 0.29958488039844344
rclavicle -3.5800152015085577E-16 -4.440680477485875E-18
rhumerus 11.2035010655407 0.13690921364079145 -40.26640179711936
rradius 117.00386639023296
rwrist -30.028003000530017
rhand -11.77961927052027 -35.55369620849018
rfingers 7.125019999999959
rthumb 14.309374084284364 -64.99635691212431
lclavicle -4.765051192483801E-16 -5.18552801882262E-16
lhumerus -42.653727935687954 -0.4175622782505283 83.03740095802402
lradius 44.316816614614616
lwrist 2.317970615022884
lhand -16.370003857853195 -9.73685171366973
lfingers 7.125019999999914
lthumb 9.812226945473542 19.301800773154515
rfemur -3.0224098683953757 1.1247961696174475 6.039840411305348
rtibia 9.043511683169708
rfoot -1.7010251894096688 -1.4766504682580535
rtoes 0.8682808475147215
lfemur -6.618079338251684 -3.494007955896934 -12.47519142126082
ltibia 27.627586832929182
lfoot -18.831839460953695 7.590679485749101
ltoes -42.03891792720204
